#N canvas 828 179 701 545 10;
#X obj 82 449 dac~;
#X obj 14 508 hsl 128 15 0 1 0 0 slider2 slider2 slider2 -2 -8 0 10
-262144 -1 -1 0 1;
#X obj 15 472 hsl 128 15 0 1 0 0 slider1 slider1 slider1 -2 -8 0 10
-262144 -1 -1 0 1;
#X msg 261 249 describe;
#X obj 164 472 hsl 128 15 0.011 1 0 0 slider3 slider3 slider3 -2 -8
0 10 -262144 -1 -1 0 1;
#X obj 163 508 hsl 128 15 0.011 1 0 0 slider4 slider4 slider4 -2 -8
0 10 -262144 -1 -1 0 1;
#X obj 314 473 hsl 128 15 0.011 1 0 0 slider5 slider5 slider5 -2 -8
0 10 -262144 -1 -1 0 1;
#N canvas 489 423 644 279 slider_r 0;
#X obj 311 245 outlet;
#X obj 45 33 r slider1;
#X obj 114 34 r slider2;
#X obj 180 37 r slider3;
#X obj 245 30 r slider4;
#X msg 44 87 slider 1 \$1;
#X obj 308 37 r slider5;
#X msg 307 92 slider 5 \$1;
#X msg 242 114 slider 4 \$1;
#X msg 180 89 slider 3 \$1;
#X msg 111 114 slider 2 \$1;
#X obj 382 31 r slider6;
#X msg 383 113 slider 6 \$1;
#X obj 467 30 r slider7;
#X msg 468 91 slider 7 \$1;
#X obj 549 33 r slider8;
#X msg 549 112 slider 8 \$1;
#X connect 1 0 5 0;
#X connect 2 0 10 0;
#X connect 3 0 9 0;
#X connect 4 0 8 0;
#X connect 5 0 0 0;
#X connect 6 0 7 0;
#X connect 7 0 0 0;
#X connect 8 0 0 0;
#X connect 9 0 0 0;
#X connect 10 0 0 0;
#X connect 11 0 12 0;
#X connect 12 0 0 0;
#X connect 13 0 14 0;
#X connect 14 0 0 0;
#X connect 15 0 16 0;
#X connect 16 0 0 0;
#X restore 132 294 pd slider_r;
#X msg 266 295 dumpvars;
#X msg 53 166 compile gain.jsfx;
#X obj 315 508 hsl 128 15 0.011 1 0 0 slider6 slider6 slider6 -2 -8
0 10 -262144 -1 -1 0 1;
#X obj 463 508 hsl 128 15 0.011 1 0 0 slider8 slider8 slider8 -2 -8
0 10 -262144 -1 -1 0 1;
#X msg 73 232 compile octaveup;
#X msg 54 203 compile butterworth24db;
#X obj 464 473 hsl 128 15 0.011 1 0 0 slider7 slider7 slider7 -2 -8
0 10 -262144 -1 -1 0 1;
#X obj 229 339 s jsfxmsg;
#X obj 137 323 r jsfxmsg;
#X msg 229 214 bypass \$1;
#X obj 229 174 tgl 15 0 empty empty empty 17 7 0 10 -262144 -1 -1 0
1;
#X text 309 216 bypass is used to bypass the fx processing;
#X text 10 10 jsusfx~ : Jesusonic for pure-data ============================================================
;
#X text 126 110 Use compile to recompile (or change) the current script.
Optionally \, you can specify another jsfx script.;
#X text 9 44 jsusfx~ takes as an argument the jsfx script to load.
The file will be searched in the pd path.;
#X text 277 272 describe outputs the assigned slider to the pd console
;
#X text 277 319 dumpvars output all the variable output to the pd console
;
#X text 193 411 slider <num> <value 0..1> is used to change the value
of a parameter of the jsfx script.;
#X obj 22 365 jsusfx~ gain.jsfx;
#X obj 54 98 openpanel;
#X obj 55 73 bng 15 250 50 0 empty empty empty 17 7 0 10 -262144 -1
-1;
#X msg 46 142 compile \$1;
#N canvas 746 75 450 300 test_tones 0;
#X obj 52 246 outlet~;
#X obj 53 184 phasor~;
#X obj 55 125 *~ 110;
#X obj 54 154 +~ 220;
#X obj 54 89 phasor~ 0.1;
#X obj 53 213 *~ 0.25;
#X obj 175 131 readsf~;
#X msg 170 70 open ~/Desktop/menage/vinyls/broker-dealer/tracky1-2.wav
;
#X msg 211 101 1;
#X msg 180 33 open ~/Desktop/menage/vinyls/broker-dealer/01-broker_dealer-110704_0012.wav
;
#X connect 1 0 5 0;
#X connect 2 0 3 0;
#X connect 3 0 1 0;
#X connect 4 0 2 0;
#X connect 6 0 0 0;
#X connect 7 0 6 0;
#X connect 8 0 6 0;
#X connect 9 0 6 0;
#X restore 86 258 pd test_tones;
#X obj 42 410 tilteq;
#X connect 3 0 15 0;
#X connect 7 0 26 0;
#X connect 8 0 15 0;
#X connect 9 0 26 0;
#X connect 12 0 26 0;
#X connect 13 0 26 0;
#X connect 16 0 26 0;
#X connect 17 0 15 0;
#X connect 18 0 17 0;
#X connect 26 0 31 0;
#X connect 26 1 31 1;
#X connect 27 0 29 0;
#X connect 28 0 27 0;
#X connect 29 0 26 0;
#X connect 30 0 26 0;
#X connect 30 0 26 1;
#X connect 31 0 0 0;
#X connect 31 1 0 1;
